<svg width="1494" height="190" viewBox="0 0 1494 190" fill="none" xmlns="http://www.w3.org/2000/svg" class="logo"><path d="M110.403 167.22C110.406 167.22 110.407 167.223 110.406 167.225C98.3761 181.832 81.7475 189.13 60.51 189.13C40.96 189.13 26.04 183.51 15.76 172.27C5.48 161.04 0.23 144.58 0 122.89V11.5901C0 7.05013 3.67 3.38013 8.2 3.38013H40.51C45.04 3.38013 48.71 7.05013 48.71 11.5801V121.34C48.71 140.35 57.36 149.86 74.67 149.86C91.0743 149.86 101.407 144.705 107.712 134.404C108.405 133.272 108.72 131.956 108.72 130.629V11.5901C108.72 7.06013 112.39 3.39013 116.92 3.39013H149.39C153.92 3.39013 157.59 7.06013 157.59 11.5901V176.67C157.59 181.69 153.52 185.76 148.5 185.76H120.19C115.43 185.76 111.47 182.08 111.13 177.33L110.4 167.223C110.4 167.222 110.402 167.22 110.403 167.22Z" fill="#0071E2"></path><path d="M237.75 185.76H204.87C200.45 185.76 196.87 182.18 196.87 177.76V11.7701C196.87 7.14013 200.63 3.38013 205.26 3.38013H237.37C242 3.38013 245.76 7.14013 245.76 11.7701V177.76C245.76 182.18 242.18 185.76 237.76 185.76H237.75Z" fill="#0071E2"></path><path d="M354.145 126.26C354.142 126.26 354.141 126.258 354.141 126.255L386.33 9.51013C387.33 5.89013 390.62 3.38013 394.38 3.38013H427.31C433.02 3.38013 437.04 8.98013 435.22 14.3901L379.27 180.25C378.16 183.54 375.08 185.75 371.61 185.75H336.7C333.23 185.75 330.15 183.54 329.04 180.25L273.07 14.3901C271.25 8.98013 275.27 3.38013 280.98 3.38013H313.91C317.66 3.38013 320.96 5.89013 321.96 9.51013L354.149 126.255C354.149 126.258 354.148 126.26 354.145 126.26Z" fill="currentColor"></path><path d="M544.27 189.13C517.52 189.13 495.75 180.93 478.95 164.52C462.15 148.11 453.75 126.26 453.75 98.95V94.23C453.75 75.92 457.29 59.54 464.37 45.1C471.45 30.66 481.48 19.54 494.46 11.72C507.44 3.91001 522.24 0.0100098 538.88 0.0100098C563.82 0.0100098 583.46 7.88001 597.79 23.61C612.12 39.34 619.28 61.65 619.28 90.53V102.42C619.28 106.84 615.7 110.42 611.28 110.42H512.264C507.43 110.42 503.635 114.71 505.041 119.334C507.43 127.194 511.545 133.773 517.38 139.07C525.3 146.26 535.33 149.86 547.47 149.86C563.02 149.86 575.76 145.19 585.68 135.85C589.09 132.64 594.45 132.81 597.57 136.3L610.78 151.09C613.56 154.21 613.59 158.92 610.83 162.06C604.14 169.67 595.78 175.8 585.74 180.45C573.27 186.24 559.45 189.13 544.28 189.13H544.27ZM538.715 39.275C538.712 39.2782 538.707 39.28 538.703 39.28C529.036 39.2816 521.209 42.5516 515.2 49.1C510.767 53.9309 507.51 60.2959 505.427 68.1908C504.188 72.8857 507.981 77.2 512.837 77.2H567.51C569.664 77.2 571.41 75.4539 571.41 73.3C571.18 62.46 568.26 54.08 562.65 48.16C557.031 42.2314 549.054 39.2714 538.727 39.27C538.723 39.27 538.718 39.2718 538.715 39.275Z" fill="currentColor"></path><path d="M1035.27 189.13C1008.52 189.13 986.75 180.93 969.95 164.52C953.15 148.11 944.75 126.26 944.75 98.95V94.23C944.75 75.92 948.29 59.54 955.37 45.1C962.45 30.66 972.48 19.54 985.46 11.72C998.44 3.91001 1013.24 0.0100098 1029.88 0.0100098C1054.82 0.0100098 1074.46 7.88001 1088.79 23.61C1103.12 39.34 1110.28 61.65 1110.28 90.53V102.42C1110.28 106.84 1106.7 110.42 1102.28 110.42H1003.26C998.43 110.42 994.635 114.71 996.041 119.334C998.43 127.194 1002.54 133.773 1008.38 139.07C1016.3 146.26 1026.33 149.86 1038.47 149.86C1054.02 149.86 1066.76 145.19 1076.68 135.85C1080.09 132.64 1085.45 132.81 1088.57 136.3L1101.78 151.09C1104.56 154.21 1104.59 158.92 1101.83 162.06C1095.14 169.67 1086.78 175.8 1076.74 180.45C1064.27 186.24 1050.45 189.13 1035.28 189.13H1035.27ZM1029.71 39.275C1029.71 39.2782 1029.71 39.28 1029.7 39.28C1020.04 39.2816 1012.21 42.5516 1006.2 49.1C1001.77 53.9309 998.51 60.2959 996.427 68.1908C995.189 72.8857 998.981 77.2 1003.84 77.2H1058.51C1060.66 77.2 1062.41 75.4539 1062.41 73.3C1062.18 62.46 1059.26 54.08 1053.65 48.16C1048.03 42.2314 1040.05 39.2714 1029.73 39.27C1029.72 39.27 1029.72 39.2718 1029.71 39.275Z" fill="currentColor"></path><path d="M749.545 39.895C749.542 39.8982 749.54 39.9026 749.54 39.9071C749.466 44.7137 745.348 48.4798 740.55 48.09C737.44 47.84 734.54 47.71 731.87 47.71C714.231 47.71 702.409 53.4257 696.403 64.8482C695.867 65.8688 695.63 67.017 695.63 68.1701V177.49C695.63 182.05 691.93 185.75 687.37 185.75H655.18C650.62 185.75 646.92 182.05 646.92 177.49V11.51C646.92 7.02001 650.56 3.38001 655.05 3.38001H685.29C689.59 3.38001 693.14 6.72001 693.41 11.01C693.674 15.2536 699.751 16.8577 702.674 13.7698C711.355 4.59931 722.1 0.0100098 734.91 0.0100098C737.69 0.0100098 740.39 0.21001 743 0.59001C747.09 1.20001 750.05 4.81001 749.99 8.94001L749.55 39.8829C749.55 39.8875 749.548 39.8918 749.545 39.895Z" fill="currentColor"></path><path d="M871.6 135.36C871.6 129.4 868.65 124.71 862.75 121.29C856.85 117.86 847.38 114.8 834.35 112.1C790.97 103 769.29 84.57 769.29 56.81C769.29 40.63 776 27.12 789.43 16.27C802.86 5.43 820.41 0 842.11 0C865.26 0 883.77 5.45 897.65 16.35C908.97 25.24 915.67 36.3 917.76 49.52C918.53 54.4 914.77 58.83 909.83 58.83H876.9C873.17 58.83 869.92 56.26 869.09 52.62C868.12 48.36 866.09 44.67 863.01 41.55C858.52 37 851.49 34.72 841.94 34.72C833.74 34.72 827.39 36.57 822.89 40.28C818.4 43.99 816.15 48.71 816.15 54.44C816.15 59.83 818.7 64.19 823.82 67.5C828.93 70.82 837.56 73.68 849.7 76.1C861.84 78.52 872.06 81.24 880.38 84.27C906.11 93.71 918.98 110.06 918.98 133.32C918.98 149.95 911.84 163.41 897.57 173.69C883.3 183.97 864.87 189.11 842.28 189.11C827 189.11 813.43 186.38 801.57 180.94C789.71 175.49 780.42 168.02 773.67 158.52C768.97 151.9 765.91 144.91 764.49 137.56C763.51 132.48 767.39 127.76 772.57 127.76H802.66C806.46 127.76 809.74 130.38 810.65 134.08C812.04 139.72 814.94 144.24 819.36 147.65C825.32 152.26 833.29 154.56 843.29 154.56C852.62 154.56 859.67 152.79 864.44 149.25C869.21 145.71 871.6 141.08 871.6 135.34V135.36Z" fill="currentColor"></path><path d="M1139.44 161.82C1139.44 161.82 1139.44 161.818 1139.44 161.815C1139.44 154.067 1142.05 147.769 1147.28 142.94C1152.5 138.11 1159.05 135.69 1166.92 135.69C1174.79 135.69 1181.5 138.11 1186.73 142.94C1191.95 147.77 1194.57 154.06 1194.57 161.82C1194.57 169.58 1191.99 175.67 1186.82 180.44C1181.65 185.22 1175.02 187.6 1166.93 187.6C1158.84 187.6 1152.38 185.21 1147.21 180.44C1142.04 175.671 1139.45 169.463 1139.45 161.825C1139.45 161.822 1139.45 161.82 1139.44 161.82Z" fill="currentColor"></path><path d="M1280.49 185.76H1247.85C1243.37 185.76 1239.73 182.12 1239.73 177.64V11.5001C1239.73 7.02013 1243.37 3.38013 1247.85 3.38013H1280.49C1284.97 3.38013 1288.61 7.02013 1288.61 11.5001V177.64C1288.61 182.12 1284.97 185.76 1280.49 185.76Z" fill="currentColor"></path><path d="M1321.15 92.88C1321.15 92.88 1321.15 92.8777 1321.15 92.875C1321.15 74.787 1324.63 58.6587 1331.6 44.5C1338.56 30.34 1348.59 19.39 1361.69 11.63C1374.78 3.88 1389.98 0 1407.29 0C1431.9 0 1451.98 7.53 1467.55 22.59C1483.11 37.65 1491.79 58.1 1493.59 83.94L1493.93 96.41C1493.93 124.39 1486.12 146.84 1470.5 163.75C1454.88 180.66 1433.92 189.12 1407.63 189.12C1381.34 189.12 1360.35 180.69 1344.67 163.84C1328.99 146.99 1321.16 124.06 1321.16 95.07V92.885C1321.16 92.8822 1321.16 92.88 1321.15 92.88ZM1369.85 96.345C1369.86 96.3432 1369.86 96.3445 1369.86 96.3471C1369.86 113.674 1373.12 126.931 1379.63 136.1C1386.15 145.27 1395.48 149.86 1407.61 149.86C1419.74 149.86 1428.62 145.33 1435.25 136.27C1441.88 127.21 1445.19 112.72 1445.19 92.8C1445.19 75.81 1441.87 62.64 1435.25 53.3C1428.62 43.96 1419.29 39.29 1407.27 39.29C1395.25 39.29 1386.14 43.93 1379.62 53.22C1373.1 62.5089 1369.85 76.8765 1369.85 96.3429C1369.85 96.3455 1369.85 96.3468 1369.85 96.345Z" fill="currentColor"></path></svg>